<?xml version="1.0" encoding="UTF-8" standalone="no"?>
<!-- Created with Inkscape (http://www.inkscape.org/) -->

<svg
   xmlns:dc="http://purl.org/dc/elements/1.1/"
   xmlns:cc="http://creativecommons.org/ns#"
   xmlns:rdf="http://www.w3.org/1999/02/22-rdf-syntax-ns#"
   xmlns:svg="http://www.w3.org/2000/svg"
   xmlns="http://www.w3.org/2000/svg"
   xmlns:sodipodi="http://sodipodi.sourceforge.net/DTD/sodipodi-0.dtd"
   xmlns:inkscape="http://www.inkscape.org/namespaces/inkscape"
   id="svg3004"
   version="1.1"
   inkscape:version="0.48.4 r9939"
   width="230.15875"
   height="372.0475"
   xml:space="preserve"
   sodipodi:docname="LG Twents Bierbrouwers Gilde _ KLEUR.pdf"><metadata
     id="metadata3010"><rdf:RDF><cc:Work
         rdf:about=""><dc:format>image/svg+xml</dc:format><dc:type
           rdf:resource="http://purl.org/dc/dcmitype/StillImage" /><dc:title></dc:title></cc:Work></rdf:RDF></metadata><defs
     id="defs3008"><clipPath
       clipPathUnits="userSpaceOnUse"
       id="clipPath3018"><path
         d="m 0,297.638 184.127,0 L 184.127,0 0,0 0,297.638 z"
         id="path3020" /></clipPath></defs><sodipodi:namedview
     pagecolor="#ffffff"
     bordercolor="#666666"
     borderopacity="1"
     objecttolerance="10"
     gridtolerance="10"
     guidetolerance="10"
     inkscape:pageopacity="0"
     inkscape:pageshadow="2"
     inkscape:window-width="734"
     inkscape:window-height="845"
     id="namedview3006"
     showgrid="false"
     inkscape:zoom="1.8277237"
     inkscape:cx="115.07938"
     inkscape:cy="186.02374"
     inkscape:window-x="446"
     inkscape:window-y="74"
     inkscape:window-maximized="0"
     inkscape:current-layer="g3012" /><g
     id="g3012"
     inkscape:groupmode="layer"
     inkscape:label="LG Twents Bierbrouwers Gilde _ KLEUR"
     transform="matrix(1.25,0,0,-1.25,0,372.0475)"><g
       id="g3014"><g
         id="g3016"
         clip-path="url(#clipPath3018)"><path
           d="m 45.662,276.583 3.127,-4.229 -3.264,-2.412 12.497,-16.903 -5.495,-4.063 -12.497,16.904 -3.25,-2.403 -3.127,4.229 12.009,8.877 z"
           style="fill:#231f20;fill-opacity:1;fill-rule:nonzero;stroke:none"
           id="path3022" /><path
           d="m 74.425,289.515 6.809,-25.568 -7.945,-3.13 c -2.205,3.471 -4.526,7.489 -6.964,12.054 0.553,-2.144 1.646,-6.645 3.278,-13.506 l -7.9,-3.112 -12.473,23.337 6.178,2.433 4.012,-8.278 3.907,-7.971 c -1.447,4.351 -3.064,10.17 -4.852,17.457 l 6.615,2.606 c 0.372,-0.679 1.663,-3.276 3.872,-7.792 l 4.355,-9.016 c -1.976,6.05 -3.667,12.067 -5.07,18.052 l 6.178,2.434 z"
           style="fill:#231f20;fill-opacity:1;fill-rule:nonzero;stroke:none"
           id="path3024" /><path
           d="m 82.863,290.083 11.386,0.555 0.256,-5.256 -4.558,-0.222 0.243,-4.979 4.265,0.208 0.244,-4.996 -4.265,-0.208 0.281,-5.775 5.012,0.244 0.255,-5.255 -11.839,-0.577 -1.28,26.261 z"
           style="fill:#231f20;fill-opacity:1;fill-rule:nonzero;stroke:none"
           id="path3026" /><path
           d="m 118.975,286.401 -6.092,-25.578 -5.83,1.389 -0.69,12.452 -2.77,-11.628 -5.561,1.325 6.093,25.577 5.561,-1.324 0.985,-12.406 2.743,11.518 5.561,-1.325 z"
           style="fill:#231f20;fill-opacity:1;fill-rule:nonzero;stroke:none"
           id="path3028" /><path
           d="m 138.601,277.289 -2.364,-4.699 -3.627,1.824 -9.45,-18.785 -6.106,3.073 9.45,18.784 -3.611,1.817 2.363,4.7 13.345,-6.714 z"
           style="fill:#231f20;fill-opacity:1;fill-rule:nonzero;stroke:none"
           id="path3030" /><path
           d="m 149.803,259.539 -5.104,3.776 1.158,1.566 c 0.541,0.731 0.821,1.245 0.838,1.542 0.018,0.297 -0.126,0.557 -0.43,0.783 -0.33,0.245 -0.681,0.294 -1.05,0.15 -0.37,-0.144 -0.757,-0.49 -1.162,-1.038 -0.523,-0.705 -0.82,-1.307 -0.892,-1.805 -0.081,-0.492 0.118,-1.306 0.598,-2.442 1.37,-3.262 2.028,-5.594 1.973,-6.995 -0.052,-1.401 -0.845,-3.137 -2.378,-5.208 -1.114,-1.505 -2.111,-2.485 -2.991,-2.937 -0.881,-0.453 -2.005,-0.548 -3.371,-0.284 -1.367,0.264 -2.72,0.892 -4.06,1.883 -1.471,1.088 -2.52,2.296 -3.148,3.622 -0.628,1.327 -0.784,2.539 -0.469,3.639 0.316,1.1 1.059,2.441 2.231,4.025 l 1.024,1.384 5.104,-3.777 -1.903,-2.571 c -0.586,-0.791 -0.891,-1.354 -0.915,-1.686 -0.024,-0.333 0.148,-0.634 0.513,-0.905 0.365,-0.27 0.744,-0.327 1.135,-0.173 0.391,0.156 0.796,0.516 1.215,1.081 0.92,1.245 1.352,2.184 1.296,2.818 -0.065,0.64 -0.449,1.914 -1.152,3.822 -0.696,1.915 -1.116,3.242 -1.257,3.979 -0.141,0.737 -0.09,1.575 0.153,2.513 0.243,0.938 0.779,1.968 1.609,3.091 1.198,1.618 2.28,2.649 3.247,3.091 0.968,0.443 2.069,0.534 3.303,0.274 1.234,-0.261 2.505,-0.874 3.811,-1.84 1.426,-1.056 2.472,-2.186 3.135,-3.391 0.664,-1.204 0.9,-2.278 0.708,-3.22 -0.191,-0.942 -0.909,-2.253 -2.151,-3.932 l -0.618,-0.835 z"
           style="fill:#231f20;fill-opacity:1;fill-rule:nonzero;stroke:none"
           id="path3032" /><path
           d="m 21.084,70.979 -1.378,-4.841 c 0.22,-0.053 0.39,-0.097 0.511,-0.131 0.5,-0.143 0.858,-0.097 1.073,0.139 0.214,0.234 0.506,0.996 0.874,2.287 0.193,0.681 0.273,1.175 0.238,1.48 -0.035,0.306 -0.133,0.52 -0.294,0.644 -0.161,0.123 -0.503,0.264 -1.024,0.422 M 18.74,62.75 17.006,56.659 c 0.725,-0.178 1.219,-0.183 1.48,-0.015 0.262,0.168 0.517,0.691 0.767,1.57 l 0.579,2.03 c 0.265,0.933 0.337,1.523 0.216,1.771 -0.121,0.247 -0.557,0.492 -1.308,0.735 m -1.688,13.404 5.08,-1.446 c 1.605,-0.458 2.782,-0.943 3.529,-1.456 0.748,-0.514 1.255,-1.267 1.522,-2.258 0.266,-0.992 0.131,-2.429 -0.405,-4.311 -0.362,-1.274 -0.794,-2.11 -1.296,-2.51 -0.502,-0.4 -1.319,-0.584 -2.452,-0.551 1.093,-0.631 1.752,-1.35 1.976,-2.154 0.224,-0.807 0.134,-1.917 -0.269,-3.333 l -0.574,-2.017 c -0.419,-1.471 -0.881,-2.515 -1.385,-3.139 -0.504,-0.622 -1.124,-0.968 -1.859,-1.041 -0.735,-0.07 -2.127,0.185 -4.175,0.768 l -5.892,1.678 6.2,21.77 z"
           style="fill:#7b7979;fill-opacity:1;fill-rule:nonzero;stroke:none"
           id="path3034" /><path
           d="m 35.553,71.212 -5.336,-21.997 -5.149,1.249 5.337,21.997 5.148,-1.249 z"
           style="fill:#7b7979;fill-opacity:1;fill-rule:nonzero;stroke:none"
           id="path3036" /><path
           d="m 37.423,70.757 8.643,-1.81 -0.928,-4.432 -3.46,0.724 -0.879,-4.199 3.238,-0.679 -0.883,-4.214 -3.238,0.678 -1.02,-4.87 3.805,-0.796 -0.929,-4.433 -8.988,1.882 4.639,22.149 z"
           style="fill:#7b7979;fill-opacity:1;fill-rule:nonzero;stroke:none"
           id="path3038" /><path
           d="m 52.079,63.97 -0.826,-4.965 c 0.588,-0.098 1.015,-0.077 1.28,0.062 0.266,0.141 0.481,0.704 0.644,1.687 l 0.205,1.227 c 0.117,0.709 0.08,1.192 -0.11,1.45 -0.191,0.259 -0.589,0.439 -1.193,0.539 m -4.591,4.691 3.7,-0.615 c 2.466,-0.412 4.118,-0.795 4.957,-1.152 0.837,-0.356 1.459,-1.015 1.865,-1.975 0.407,-0.961 0.451,-2.394 0.135,-4.297 -0.29,-1.738 -0.679,-2.873 -1.167,-3.406 -0.488,-0.533 -1.313,-0.764 -2.476,-0.694 0.987,-0.457 1.619,-0.955 1.895,-1.492 0.277,-0.537 0.425,-1.013 0.445,-1.427 0.021,-0.415 -0.119,-1.523 -0.419,-3.326 l -0.979,-5.889 -4.855,0.807 1.235,7.421 c 0.198,1.196 0.237,1.949 0.114,2.264 -0.122,0.312 -0.543,0.529 -1.263,0.648 L 49,45.46 l -5.227,0.869 3.715,22.332 z"
           style="fill:#7b7979;fill-opacity:1;fill-rule:nonzero;stroke:none"
           id="path3040" /><path
           d="M 65.438,62.04 64.85,57.042 c 0.226,-0.018 0.401,-0.033 0.526,-0.049 0.517,-0.06 0.863,0.041 1.038,0.308 0.174,0.264 0.34,1.065 0.497,2.398 0.083,0.704 0.082,1.204 -0.001,1.5 -0.083,0.296 -0.215,0.491 -0.393,0.587 -0.179,0.097 -0.539,0.182 -1.079,0.254 m -1,-8.498 -0.739,-6.291 c 0.744,-0.059 1.233,0.015 1.464,0.223 0.232,0.207 0.4,0.764 0.507,1.672 l 0.247,2.096 c 0.113,0.962 0.09,1.556 -0.07,1.782 -0.159,0.225 -0.629,0.398 -1.409,0.518 m -3.811,12.964 5.25,-0.617 c 1.659,-0.195 2.898,-0.486 3.718,-0.873 0.821,-0.388 1.442,-1.05 1.864,-1.987 0.422,-0.936 0.519,-2.377 0.291,-4.321 -0.155,-1.314 -0.448,-2.209 -0.88,-2.685 -0.432,-0.474 -1.21,-0.786 -2.334,-0.936 1.181,-0.449 1.946,-1.052 2.296,-1.811 0.35,-0.759 0.439,-1.871 0.268,-3.334 L 70.854,47.86 c -0.178,-1.519 -0.467,-2.625 -0.865,-3.32 -0.399,-0.693 -0.955,-1.135 -1.67,-1.324 -0.715,-0.188 -2.131,-0.157 -4.247,0.092 l -6.088,0.714 2.643,22.484 z"
           style="fill:#7b7979;fill-opacity:1;fill-rule:nonzero;stroke:none"
           id="path3042" /><path
           d="m 79.194,60.722 -0.34,-5.02 c 0.594,-0.041 1.017,0.022 1.268,0.188 0.251,0.164 0.41,0.744 0.477,1.738 l 0.084,1.242 c 0.049,0.715 -0.035,1.192 -0.249,1.431 -0.216,0.239 -0.629,0.379 -1.24,0.421 m -5.024,4.22 3.742,-0.254 c 2.494,-0.169 4.176,-0.391 5.045,-0.665 0.868,-0.273 1.551,-0.868 2.048,-1.784 0.497,-0.916 0.681,-2.337 0.55,-4.26 -0.119,-1.757 -0.396,-2.924 -0.83,-3.501 -0.435,-0.579 -1.234,-0.889 -2.397,-0.931 1.026,-0.359 1.703,-0.793 2.031,-1.3 0.327,-0.508 0.521,-0.967 0.581,-1.377 0.06,-0.41 0.029,-1.527 -0.094,-3.349 l -0.405,-5.954 -4.909,0.333 0.509,7.501 c 0.082,1.209 0.047,1.963 -0.105,2.262 -0.152,0.301 -0.592,0.476 -1.32,0.525 L 77.925,42.01 72.639,42.368 74.17,64.942 z"
           style="fill:#7b7979;fill-opacity:1;fill-rule:nonzero;stroke:none"
           id="path3044" /><path
           d="m 94.089,58.161 c 0.016,1.053 -0.025,1.727 -0.124,2.023 -0.101,0.295 -0.315,0.446 -0.642,0.452 -0.276,0.004 -0.49,-0.112 -0.64,-0.348 -0.151,-0.234 -0.236,-0.935 -0.255,-2.1 L 92.252,47.619 c -0.023,-1.314 0.013,-2.126 0.104,-2.434 0.091,-0.31 0.313,-0.467 0.665,-0.473 0.361,-0.006 0.595,0.167 0.702,0.519 0.106,0.353 0.17,1.196 0.193,2.529 l 0.173,10.401 z m 5.174,-7.525 C 99.225,48.361 99.15,46.752 99.038,45.808 98.926,44.863 98.609,44.003 98.089,43.229 97.568,42.454 96.872,41.864 96.001,41.46 95.13,41.056 94.12,40.862 92.971,40.882 c -1.091,0.017 -2.067,0.232 -2.929,0.642 -0.861,0.411 -1.55,1.016 -2.065,1.817 -0.516,0.802 -0.816,1.668 -0.901,2.602 -0.085,0.934 -0.109,2.566 -0.07,4.896 l 0.064,3.873 c 0.038,2.273 0.113,3.883 0.225,4.827 0.112,0.945 0.429,1.804 0.949,2.579 0.521,0.774 1.216,1.363 2.088,1.769 0.871,0.405 1.881,0.598 3.031,0.579 1.09,-0.018 2.067,-0.233 2.928,-0.643 0.862,-0.411 1.551,-1.017 2.065,-1.817 0.516,-0.802 0.816,-1.669 0.902,-2.603 0.085,-0.933 0.108,-2.565 0.069,-4.894 l -0.064,-3.873 z"
           style="fill:#7b7979;fill-opacity:1;fill-rule:nonzero;stroke:none"
           id="path3046" /><path
           d="m 112.777,64.351 0.568,-15.118 c 0.063,-1.712 0.058,-2.919 -0.017,-3.617 -0.074,-0.697 -0.346,-1.421 -0.811,-2.171 -0.468,-0.749 -1.099,-1.328 -1.895,-1.735 -0.794,-0.408 -1.741,-0.633 -2.839,-0.673 -1.216,-0.046 -2.297,0.138 -3.244,0.55 -0.947,0.412 -1.665,0.969 -2.153,1.668 -0.489,0.7 -0.789,1.446 -0.903,2.24 -0.113,0.793 -0.217,2.465 -0.313,5.018 l -0.501,13.384 5.294,0.199 0.635,-16.962 c 0.037,-0.987 0.108,-1.615 0.215,-1.887 0.107,-0.271 0.307,-0.402 0.6,-0.391 0.336,0.013 0.545,0.172 0.631,0.479 0.085,0.307 0.106,1.022 0.064,2.15 l -0.625,16.666 5.294,0.2 z"
           style="fill:#7b7979;fill-opacity:1;fill-rule:nonzero;stroke:none"
           id="path3048" /><path
           d="m 133.579,66.446 0.107,-22.752 -6.581,-0.715 c -0.976,3.389 -1.931,7.26 -2.87,11.611 -0.003,-1.903 -0.064,-5.885 -0.181,-11.944 l -6.542,-0.71 -4.799,22.241 5.116,0.556 1.392,-7.793 1.375,-7.513 c -0.235,3.94 -0.311,9.134 -0.227,15.583 l 5.479,0.595 c 0.146,-0.649 0.607,-3.102 1.382,-7.358 l 1.505,-8.483 c -0.299,5.469 -0.39,10.844 -0.273,16.126 l 5.117,0.556 z"
           style="fill:#7b7979;fill-opacity:1;fill-rule:nonzero;stroke:none"
           id="path3050" /><path
           d="m 133.584,66.661 8.697,1.551 0.795,-4.459 -3.48,-0.621 0.753,-4.227 3.257,0.581 0.757,-4.239 -3.259,-0.581 0.875,-4.9 3.828,0.682 0.795,-4.46 -9.043,-1.612 -3.975,22.285 z"
           style="fill:#7b7979;fill-opacity:1;fill-rule:nonzero;stroke:none"
           id="path3052" /><path
           d="m 149.433,65.85 1.159,-4.898 c 0.579,0.137 0.965,0.321 1.155,0.553 0.191,0.232 0.172,0.834 -0.059,1.804 l -0.286,1.212 c -0.166,0.697 -0.386,1.128 -0.662,1.293 -0.276,0.165 -0.711,0.177 -1.307,0.036 m -6.049,2.548 3.65,0.865 c 2.433,0.575 4.105,0.86 5.016,0.855 0.91,-0.004 1.739,-0.371 2.485,-1.099 0.745,-0.729 1.34,-2.033 1.784,-3.911 0.407,-1.713 0.487,-2.912 0.244,-3.591 -0.246,-0.68 -0.917,-1.213 -2.016,-1.598 1.088,-0.039 1.863,-0.254 2.325,-0.643 0.463,-0.388 0.784,-0.769 0.963,-1.143 0.179,-0.374 0.478,-1.45 0.899,-3.229 l 1.375,-5.809 -4.789,-1.133 -1.731,7.32 c -0.279,1.179 -0.536,1.889 -0.771,2.131 -0.233,0.242 -0.705,0.277 -1.415,0.109 l 2.35,-9.931 -5.156,-1.221 -5.213,22.028 z"
           style="fill:#7b7979;fill-opacity:1;fill-rule:nonzero;stroke:none"
           id="path3054" /><path
           d="m 168.702,68.147 -4.704,-1.437 -0.49,1.605 c -0.229,0.748 -0.435,1.206 -0.617,1.375 -0.183,0.168 -0.415,0.209 -0.696,0.124 -0.305,-0.092 -0.494,-0.301 -0.565,-0.626 -0.072,-0.324 -0.023,-0.766 0.149,-1.328 0.22,-0.722 0.474,-1.239 0.763,-1.55 0.279,-0.315 0.892,-0.61 1.836,-0.887 2.708,-0.801 4.501,-1.588 5.378,-2.363 0.876,-0.776 1.64,-2.223 2.287,-4.345 0.471,-1.542 0.655,-2.729 0.554,-3.559 -0.102,-0.829 -0.542,-1.635 -1.322,-2.413 -0.78,-0.779 -1.787,-1.357 -3.021,-1.734 -1.357,-0.414 -2.601,-0.483 -3.733,-0.205 -1.133,0.278 -1.982,0.813 -2.548,1.605 -0.567,0.791 -1.097,1.999 -1.593,3.621 l -0.433,1.418 4.705,1.436 0.804,-2.633 c 0.248,-0.813 0.474,-1.313 0.676,-1.505 0.203,-0.19 0.473,-0.235 0.81,-0.132 0.336,0.102 0.543,0.326 0.618,0.67 0.074,0.345 0.023,0.807 -0.154,1.386 -0.389,1.275 -0.801,2.06 -1.233,2.357 -0.441,0.294 -1.431,0.708 -2.971,1.243 -1.542,0.542 -2.581,0.96 -3.118,1.254 -0.537,0.293 -1.053,0.77 -1.548,1.428 -0.494,0.658 -0.917,1.562 -1.268,2.711 -0.507,1.658 -0.687,2.93 -0.539,3.813 0.146,0.881 0.58,1.67 1.297,2.362 0.718,0.692 1.678,1.221 2.881,1.589 1.317,0.402 2.51,0.508 3.58,0.318 1.071,-0.189 1.866,-0.598 2.386,-1.223 0.52,-0.626 1.043,-1.798 1.568,-3.519 l 0.261,-0.856 z"
           style="fill:#7b7979;fill-opacity:1;fill-rule:nonzero;stroke:none"
           id="path3056" /><path
           d="m 78.045,24.493 -6.122,0.608 0.236,2.375 c 0.149,1.497 0.184,2.439 0.105,2.828 -0.079,0.388 -0.337,0.605 -0.773,0.648 -0.378,0.037 -0.651,-0.098 -0.819,-0.408 -0.168,-0.311 -0.318,-1.133 -0.451,-2.468 L 68.974,15.524 c -0.117,-1.174 -0.126,-1.953 -0.027,-2.338 0.098,-0.385 0.352,-0.598 0.759,-0.638 0.446,-0.045 0.77,0.135 0.971,0.539 0.202,0.404 0.363,1.215 0.484,2.432 l 0.309,3.101 -1.237,0.123 0.395,3.975 7.17,-0.713 L 76.403,7.966 72.549,8.35 72.168,10.28 C 71.671,9.514 71.085,8.96 70.41,8.619 69.734,8.278 68.965,8.151 68.103,8.237 67.075,8.339 66.14,8.712 65.298,9.355 c -0.842,0.644 -1.455,1.399 -1.839,2.263 -0.383,0.865 -0.589,1.753 -0.616,2.664 -0.027,0.91 0.049,2.266 0.228,4.065 l 0.772,7.769 c 0.249,2.498 0.55,4.301 0.905,5.408 0.355,1.107 1.153,2.074 2.396,2.903 1.243,0.827 2.775,1.151 4.598,0.97 1.794,-0.179 3.241,-0.736 4.342,-1.671 1.102,-0.936 1.776,-1.985 2.023,-3.146 0.247,-1.161 0.264,-2.813 0.051,-4.957 l -0.113,-1.13 z"
           style="fill:#7b7979;fill-opacity:1;fill-rule:nonzero;stroke:none"
           id="path3058" /><path
           d="M 86.944,33.74 85.525,7.495 79.383,7.827 80.801,34.072 86.944,33.74 z"
           style="fill:#7b7979;fill-opacity:1;fill-rule:nonzero;stroke:none"
           id="path3060" /><path
           d="M 95.174,33.55 94.83,12.521 98.569,12.46 98.483,7.198 l -9.889,0.161 0.429,26.291 6.151,-0.1 z"
           style="fill:#7b7979;fill-opacity:1;fill-rule:nonzero;stroke:none"
           id="path3062" /><path
           d="m 105.896,29.185 0.649,-17.286 c 0.886,0.034 1.423,0.252 1.612,0.655 0.19,0.402 0.252,1.479 0.187,3.232 l -0.384,10.209 c -0.045,1.19 -0.108,1.951 -0.189,2.283 -0.081,0.334 -0.246,0.575 -0.495,0.723 -0.249,0.146 -0.709,0.208 -1.38,0.184 m -6.315,4.263 4.598,0.173 c 2.968,0.112 4.981,0.036 6.039,-0.228 1.058,-0.263 1.873,-0.732 2.443,-1.404 0.571,-0.672 0.941,-1.429 1.109,-2.273 0.168,-0.845 0.298,-2.511 0.392,-5 l 0.347,-9.201 c 0.088,-2.36 0.048,-3.94 -0.122,-4.743 -0.17,-0.802 -0.494,-1.437 -0.974,-1.906 -0.479,-0.467 -1.08,-0.804 -1.804,-1.01 -0.723,-0.207 -1.82,-0.337 -3.29,-0.392 l -7.752,-0.291 -0.986,26.275 z"
           style="fill:#7b7979;fill-opacity:1;fill-rule:nonzero;stroke:none"
           id="path3064" /><path
           d="m 115.157,34.132 10.209,0.988 0.507,-5.236 -4.086,-0.397 0.481,-4.963 3.824,0.372 0.481,-4.98 -3.825,-0.369 0.557,-5.755 4.494,0.436 0.506,-5.239 -10.616,-1.026 -2.532,26.169 z"
           style="fill:#7b7979;fill-opacity:1;fill-rule:nonzero;stroke:none"
           id="path3066" /><path
           d="m 154.072,124.61 c -0.915,-0.453 -2.22,-0.944 -3.751,-1.082 -1.763,-0.158 -3.633,-0.334 -5.169,-1.566 0.03,1.906 -1.083,3.314 -2.166,4.581 -0.938,1.1 -1.481,2.222 -1.796,3.056 -0.314,0.834 -0.393,1.379 -0.394,1.38 -0.034,0.248 -0.052,0.371 -0.088,0.616 -0.138,-0.221 -0.207,-0.33 -0.346,-0.551 -0.004,-0.006 -0.363,-0.576 -0.714,-1.331 -0.166,-0.359 -0.33,-0.763 -0.457,-1.169 -0.448,-1.44 -0.481,-2.716 1.271,-5.827 1.07,-1.902 2.058,-2.99 1.223,-5.231 l 0.022,-0.008 c -0.473,-0.997 -1.293,-2.691 -2.125,-4.247 -0.839,-1.564 -1.783,-3.033 -2.149,-3.59 -3.108,-4.719 -14.481,-20.873 -30.658,-31.049 -0.574,-0.363 -0.747,-1.12 -0.385,-1.695 0.361,-0.574 1.119,-0.746 1.693,-0.385 16.596,10.438 28.226,26.955 31.395,31.768 0.486,0.739 1.416,2.198 2.269,3.791 1.31,2.446 2.548,5.139 2.6,5.252 0.053,0.117 0.082,0.24 0.097,0.362 1.173,0.879 2.491,0.866 4.248,1.234 3.72,0.781 4.854,1.91 5.805,3.404 0.269,0.422 0.508,0.871 0.704,1.288 0.413,0.876 0.65,1.607 0.652,1.615 0.09,0.281 0.136,0.42 0.226,0.702 -0.231,-0.184 -0.347,-0.275 -0.578,-0.456 -0.002,0.002 -0.516,-0.409 -1.429,-0.862 m -0.097,14.487 c -0.145,-0.364 -1.59,-4.08 -1.59,-4.08 0,0 1.657,1.824 5.104,2.238 3.492,0.42 6.376,2.974 7.549,6.282 0.137,0.387 0.911,2.937 0.911,2.937 0,0 -1.11,-0.719 -4.541,-1.286 -3.39,-0.562 -6.176,-2.907 -7.433,-6.091 m -10.904,-6.968 c -0.001,-0.001 -0.003,-0.001 -0.004,-0.003 0.342,-0.68 0.768,-1.234 1.417,-1.863 2.176,-2.107 2.165,-3.848 2.165,-3.848 0,0 1.435,2.834 1.593,3.159 0.849,1.743 0.999,3.763 0.237,5.526 -0.128,0.296 -0.28,0.575 -0.449,0.837 0.002,10e-4 0.003,10e-4 0.004,0.003 -0.323,0.506 -0.724,0.942 -1.278,1.409 -2.304,1.94 -3.001,3.23 -3.001,3.23 0,0 -0.69,-2.429 -0.826,-2.732 -0.736,-1.641 -0.82,-3.517 -0.077,-5.256 0.066,-0.157 0.142,-0.312 0.219,-0.462 m 20.75,37.91 c -0.07,-0.358 -0.704,-3.715 -0.704,-3.715 0,0 1.215,1.662 4.511,2.446 3.122,0.742 5.466,3.256 5.944,6.453 0.055,0.366 0.331,2.792 0.331,2.792 0,0 -0.918,-0.733 -4.071,-1.532 -3.105,-0.786 -5.397,-3.308 -6.011,-6.444 m 7.519,17.801 c -0.088,-0.054 -0.259,-0.158 -0.259,-0.158 -0.789,-0.497 -1.543,-1.147 -2.22,-1.944 -1.267,-1.491 -2.058,-3.24 -2.326,-4.926 -0.038,-0.241 -0.63,-3.622 -0.63,-3.622 0,0 1.17,1.638 4.061,2.561 3.44,1.1 4.728,4.743 4.876,8.01 0.016,0.357 0.082,2.727 0.082,2.727 0,0 -0.758,-0.919 -3.584,-2.648 m -22.642,-47.996 c 2.472,-2.042 2.328,-4.383 2.328,-4.383 0,0 1.621,3.62 1.771,3.974 1.224,2.886 0.626,6.298 -2.011,8.158 -2.57,1.813 -3.128,2.756 -3.128,2.756 0,0 -0.892,-2.201 -1.015,-2.539 -1.441,-3.95 0.465,-6.652 2.055,-7.966 m 9.251,9.412 c -0.122,-0.364 -1.291,-3.948 -1.291,-3.948 0,0 1.519,1.753 5.05,2.355 3.436,0.586 6.264,3.102 7.226,6.491 0.108,0.379 0.671,2.87 0.671,2.87 0,0 -1.058,-0.733 -4.5,-1.431 -3.353,-0.68 -6.066,-3.088 -7.156,-6.337 m 3.494,10.314 c -0.096,-0.362 -1.029,-3.931 -1.029,-3.931 0,0 1.403,1.809 4.862,2.552 3.261,0.701 5.918,3.165 6.572,6.507 0.071,0.365 0.387,2.748 0.387,2.748 0,0 -0.942,-0.703 -4.226,-1.458 -3.228,-0.74 -5.712,-3.227 -6.566,-6.418 m -6.933,-25.691 0,-0.005 c -0.329,-0.116 -0.658,-0.254 -0.982,-0.414 -1.929,-0.959 -3.357,-2.525 -4.137,-4.319 -0.146,-0.333 -1.434,-3.268 -1.434,-3.268 0,0 1.38,1.149 4.592,1.283 0.955,0.04 1.708,0.189 2.509,0.511 0.001,0.002 0.001,0.002 0.001,0.004 0.178,0.07 0.357,0.144 0.535,0.229 1.958,0.936 3.473,2.674 4.248,4.606 0.143,0.358 1.545,3.001 1.545,3.001 0,0 -1.568,-0.856 -4.822,-1.19 -0.782,-0.08 -1.423,-0.213 -2.055,-0.438 m 12.636,52.773 c 0,0 0.524,1.03 1.644,2.308 1.289,1.198 2.203,2.873 2.475,4.802 0.27,1.929 -0.148,3.775 -1.052,5.247 -0.308,0.716 -0.648,1.453 -0.982,2.231 -0.519,-0.69 -1.034,-1.335 -1.515,-1.962 -1.256,-1.232 -2.141,-2.907 -2.415,-4.815 -0.275,-1.908 0.11,-3.722 0.985,-5.188 0.693,-1.305 0.86,-2.623 0.86,-2.623 m -14.557,-37.008 c 2.687,-1.864 2.763,-4.02 2.763,-4.02 0,0 1.364,3.51 1.493,3.866 1.079,2.979 0.133,6.28 -2.607,7.948 -2.739,1.668 -3.349,2.604 -3.349,2.604 0,0 -0.796,-2.254 -0.904,-2.6 -1.259,-4.029 0.874,-6.599 2.604,-7.798 m 3.511,10.047 c 2.776,-1.712 2.991,-3.816 2.991,-3.816 0,0 1.138,3.517 1.244,3.873 0.888,3.022 -0.287,6.188 -3.02,7.766 -2.757,1.591 -3.376,2.53 -3.376,2.53 0,0 -0.687,-2.312 -0.783,-2.66 -0.816,-2.966 0.316,-6.072 2.944,-7.693 m 6.887,29.001 c 0,0 -0.133,0.141 -0.203,0.214 -2.206,2.319 -2.688,3.358 -2.688,3.358 0,0 -0.616,-2.237 -0.706,-2.582 -0.492,-1.854 -0.688,-4.893 0.251,-6.599 0.42,-0.763 1.008,-1.306 1.589,-1.912 0.001,0.002 0.001,0.003 0.002,0.004 0.088,-0.092 0.175,-0.187 0.273,-0.276 2.683,-2.445 2.958,-3.509 2.958,-3.509 0,0 0.633,3.371 0.679,3.61 0.319,1.677 0.133,3.554 -0.616,5.294 -0.401,0.929 -0.928,1.734 -1.539,2.398 m -4.354,-18.647 c 2.783,-1.642 3.174,-3.53 3.174,-3.53 0,0 0.851,3.322 0.929,3.678 0.667,3.035 -0.572,6.137 -3.269,7.714 -2.718,1.588 -3.349,2.517 -3.349,2.517 0,0 -0.575,-2.342 -0.655,-2.697 -0.672,-2.995 0.499,-6.105 3.17,-7.682 m 4.221,27.418 c -0.122,12.385 -1.463,24.164 -5.088,37.248 2.65,-14.34 3.197,-27.033 3.458,-35.987 0.065,-3.016 1.631,-3.031 1.63,-1.261 m 9.011,36.972 c 2.651,-14.34 3.198,-27.033 3.458,-35.987 0.066,-3.015 1.632,-3.031 1.63,-1.261 -0.121,12.385 -1.463,24.165 -5.088,37.248 m -2.437,-28.656 c -1.172,17.155 -3.539,33.564 -8.365,51.98 3.924,-20.057 5.57,-37.688 6.591,-50.124 0.36,-4.17 1.942,-4.299 1.774,-1.856 m 3.516,-1.773 c -0.881,15.773 -2.955,30.847 -7.438,47.705 3.561,-18.399 4.889,-34.612 5.706,-46.027 0.27,-3.842 1.857,-3.955 1.732,-1.678 m -6.697,0.364 c -0.846,15.617 -2.891,30.558 -7.348,47.245 3.534,-18.213 4.838,-34.261 5.623,-45.587 0.264,-3.795 1.845,-3.889 1.725,-1.658"
           style="fill:#231f20;fill-opacity:1;fill-rule:evenodd;stroke:none"
           id="path3068" /><path
           d="m 106.277,86.943 c -0.575,0.671 -1.269,1.511 -2.083,2.518 0.724,-1.306 1.267,-2.251 1.632,-2.837 l 0.451,0.319 z m -2.185,4.572 5.24,-5.807 -1.351,-0.955 -0.872,1.094 -0.473,-0.335 0.727,-1.197 -1.366,-0.965 -3.813,6.815 1.908,1.35 z"
           style="fill:#231f20;fill-opacity:1;fill-rule:nonzero;stroke:none"
           id="path3070" /><path
           d="m 107.977,94.528 4.827,-6.083 -1.109,-0.88 -2.852,2.244 2.194,-2.767 -1.058,-0.839 -4.828,6.083 1.059,0.84 2.883,-2.176 -2.174,2.738 1.058,0.84 z"
           style="fill:#231f20;fill-opacity:1;fill-rule:nonzero;stroke:none"
           id="path3072" /><path
           d="m 111.308,97.437 5.131,-5.831 -1.063,-0.935 -2.964,2.095 2.333,-2.651 -1.014,-0.892 -5.132,5.829 1.014,0.893 2.991,-2.026 -2.31,2.625 1.014,0.893 z"
           style="fill:#231f20;fill-opacity:1;fill-rule:nonzero;stroke:none"
           id="path3074" /><path
           d="m 114.799,98.009 c -0.252,0.26 -0.424,0.415 -0.518,0.465 -0.092,0.05 -0.175,0.041 -0.247,-0.029 -0.059,-0.058 -0.077,-0.133 -0.054,-0.223 0.025,-0.089 0.175,-0.278 0.454,-0.565 l 2.519,-2.609 c 0.313,-0.324 0.517,-0.515 0.611,-0.569 0.095,-0.056 0.18,-0.046 0.258,0.028 0.079,0.076 0.088,0.17 0.026,0.277 -0.063,0.11 -0.252,0.328 -0.571,0.657 l -2.478,2.568 z m 2.934,-0.713 c 0.542,-0.562 0.915,-0.969 1.121,-1.223 0.204,-0.255 0.343,-0.531 0.418,-0.833 0.076,-0.3 0.069,-0.594 -0.021,-0.881 -0.09,-0.286 -0.261,-0.551 -0.514,-0.795 -0.238,-0.231 -0.501,-0.39 -0.785,-0.476 -0.286,-0.086 -0.581,-0.088 -0.886,-0.004 -0.304,0.083 -0.579,0.229 -0.823,0.438 -0.244,0.209 -0.644,0.6 -1.2,1.176 l -0.922,0.955 c -0.542,0.562 -0.915,0.97 -1.12,1.223 -0.204,0.254 -0.344,0.531 -0.419,0.833 -0.075,0.3 -0.068,0.595 0.022,0.881 0.089,0.286 0.26,0.552 0.513,0.795 0.238,0.231 0.501,0.389 0.785,0.476 0.286,0.087 0.581,0.087 0.886,0.004 0.305,-0.083 0.579,-0.229 0.824,-0.438 0.243,-0.209 0.644,-0.6 1.2,-1.176 l 0.921,-0.955 z"
           style="fill:#231f20;fill-opacity:1;fill-rule:nonzero;stroke:none"
           id="path3076" /><path
           d="m 118.028,104.205 5.686,-5.293 -1.057,-1.135 -3.048,2.838 c -0.44,0.409 -0.712,0.648 -0.816,0.713 -0.105,0.066 -0.216,0.083 -0.333,0.049 -0.114,-0.033 -0.296,-0.181 -0.539,-0.442 l -0.105,-0.114 -0.664,0.618 c 0.364,0.687 0.449,1.385 0.254,2.097 l 0.622,0.669 z"
           style="fill:#231f20;fill-opacity:1;fill-rule:nonzero;stroke:none"
           id="path3078" /><path
           d="m 122.128,103.877 c 0.246,-0.214 0.42,-0.321 0.522,-0.32 0.103,0.001 0.177,0.028 0.224,0.083 0.071,0.08 0.085,0.172 0.045,0.273 -0.041,0.102 -0.168,0.246 -0.383,0.433 l -1.06,0.923 c -0.259,0.224 -0.443,0.353 -0.554,0.386 -0.11,0.033 -0.202,0.01 -0.274,-0.073 -0.044,-0.051 -0.059,-0.13 -0.044,-0.237 0.014,-0.108 0.157,-0.28 0.426,-0.514 l 1.098,-0.954 z m 0.81,-2.76 1.017,1.17 c 0.274,-0.237 0.447,-0.384 0.524,-0.44 0.076,-0.056 0.156,-0.084 0.24,-0.084 0.085,-0.001 0.158,0.034 0.22,0.105 0.052,0.061 0.073,0.129 0.059,0.208 -0.012,0.078 -0.051,0.152 -0.12,0.22 -0.068,0.067 -0.212,0.197 -0.432,0.388 l -0.933,0.812 c 0.106,-0.194 0.148,-0.384 0.127,-0.567 -0.024,-0.185 -0.11,-0.363 -0.258,-0.534 -0.188,-0.214 -0.424,-0.341 -0.712,-0.378 -0.287,-0.039 -0.552,0.007 -0.792,0.14 -0.241,0.132 -0.535,0.348 -0.881,0.648 l -0.467,0.406 c -0.41,0.356 -0.704,0.636 -0.881,0.835 -0.177,0.201 -0.304,0.43 -0.38,0.685 -0.076,0.256 -0.079,0.52 -0.006,0.793 0.072,0.274 0.218,0.537 0.437,0.789 0.273,0.313 0.551,0.523 0.834,0.629 0.283,0.106 0.574,0.125 0.874,0.058 0.299,-0.067 0.57,-0.189 0.809,-0.368 0.24,-0.177 0.681,-0.547 1.325,-1.107 l 0.814,-0.709 c 0.698,-0.606 1.158,-1.02 1.38,-1.24 0.221,-0.22 0.385,-0.48 0.492,-0.782 0.107,-0.301 0.125,-0.599 0.052,-0.893 -0.07,-0.294 -0.221,-0.574 -0.454,-0.839 -0.287,-0.331 -0.588,-0.543 -0.903,-0.637 -0.315,-0.094 -0.632,-0.082 -0.953,0.036 -0.323,0.118 -0.665,0.337 -1.032,0.656"
           style="fill:#231f20;fill-opacity:1;fill-rule:nonzero;stroke:none"
           id="path3080" /><path
           d="m 126.754,106.845 c -0.232,0.186 -0.4,0.292 -0.507,0.315 -0.106,0.024 -0.193,-0.006 -0.259,-0.087 -0.064,-0.08 -0.073,-0.168 -0.028,-0.261 0.046,-0.094 0.186,-0.237 0.423,-0.427 l 0.784,-0.632 c 0.262,-0.211 0.445,-0.328 0.551,-0.35 0.106,-0.02 0.192,0.011 0.26,0.094 0.069,0.086 0.078,0.174 0.026,0.266 -0.052,0.091 -0.211,0.244 -0.478,0.459 l -0.772,0.623 z m -2.533,2.004 c -0.203,0.164 -0.35,0.257 -0.44,0.283 -0.089,0.023 -0.167,-0.005 -0.233,-0.086 -0.064,-0.08 -0.071,-0.162 -0.023,-0.248 0.048,-0.084 0.169,-0.205 0.364,-0.362 l 0.46,-0.371 c 0.18,-0.146 0.32,-0.232 0.415,-0.255 0.095,-0.026 0.174,0 0.234,0.076 0.065,0.08 0.073,0.161 0.028,0.244 -0.046,0.084 -0.176,0.211 -0.39,0.384 l -0.415,0.335 z m 1.847,-0.371 c 0.232,0.105 0.476,0.132 0.731,0.085 0.255,-0.048 0.719,-0.341 1.388,-0.882 0.488,-0.394 0.816,-0.722 0.987,-0.984 0.17,-0.262 0.242,-0.563 0.213,-0.901 -0.029,-0.339 -0.192,-0.692 -0.489,-1.061 -0.29,-0.358 -0.589,-0.585 -0.899,-0.679 -0.311,-0.094 -0.62,-0.093 -0.927,0.006 -0.307,0.097 -0.733,0.366 -1.278,0.806 -0.366,0.295 -0.665,0.573 -0.898,0.836 -0.232,0.261 -0.334,0.575 -0.305,0.943 -0.21,-0.077 -0.443,-0.074 -0.698,0.008 -0.256,0.084 -0.535,0.246 -0.836,0.49 -0.52,0.419 -0.818,0.849 -0.892,1.29 -0.073,0.441 0.076,0.892 0.446,1.351 0.43,0.532 0.865,0.788 1.304,0.768 0.44,-0.02 0.917,-0.237 1.43,-0.65 0.326,-0.262 0.534,-0.486 0.625,-0.669 0.09,-0.183 0.124,-0.435 0.098,-0.757"
           style="fill:#231f20;fill-opacity:1;fill-rule:nonzero;stroke:none"
           id="path3082" /><path
           d="m 129.419,110.028 -2.645,1.981 2.237,-2.528 0.408,0.547 z m -3.131,4.284 4.061,-3.041 0.265,0.353 1.06,-0.793 -0.265,-0.353 1.094,-0.82 -0.93,-1.241 -1.094,0.818 -1.104,-1.474 -1.061,0.793 -3.258,4.113 1.232,1.645 z"
           style="fill:#231f20;fill-opacity:1;fill-rule:nonzero;stroke:none"
           id="path3084" /><path
           d="m 145.073,213.058 c 0.012,0.356 0.027,0.713 0.037,1.067 0.002,0.056 0.003,0.116 0.005,0.168 0.044,1.487 0.07,2.976 0.09,4.464 0.004,0.274 0.013,0.555 0.016,0.828 0.019,1.761 0.023,3.521 0.011,5.281 -0.358,0.115 -0.702,0.244 -1.051,0.367 -0.262,0.092 -0.531,0.179 -0.786,0.275 -0.426,0.159 -0.836,0.331 -1.249,0.502 -0.167,0.07 -0.341,0.134 -0.507,0.205 -2.364,1.014 -4.531,2.203 -6.568,3.504 -4.927,3.146 -9.102,6.935 -13.49,10.442 -0.144,0.115 -0.286,0.231 -0.432,0.345 -0.139,0.111 -0.281,0.22 -0.42,0.329 -0.43,0.337 -0.859,0.669 -1.285,0.99 -0.044,0.033 -0.087,0.066 -0.131,0.098 -3.619,2.714 -7.125,4.84 -10.849,6.356 -0.141,0.057 -0.277,0.117 -0.419,0.171 -0.287,0.113 -0.579,0.216 -0.869,0.322 -0.344,0.124 -0.689,0.249 -1.042,0.365 -0.143,0.047 -0.287,0.09 -0.431,0.135 -0.498,0.156 -1.002,0.307 -1.517,0.444 -0.054,0.014 -0.108,0.028 -0.162,0.042 -0.592,0.155 -1.197,0.299 -1.814,0.429 -0.021,0.003 -0.04,0.008 -0.059,0.012 -0.632,0.131 -1.279,0.248 -1.939,0.35 -0.033,0.005 -0.065,0.011 -0.097,0.015 -0.628,0.096 -1.271,0.176 -1.926,0.244 -0.077,0.008 -0.152,0.018 -0.229,0.025 -0.606,0.06 -1.23,0.104 -1.861,0.139 -0.122,0.007 -0.241,0.017 -0.365,0.023 -0.375,0.018 -0.767,0.019 -1.151,0.028 l 0,-18.942 c 1.04,-1.258 1.995,-2.736 2.778,-4.573 1.832,1.164 4.701,1.737 7.611,0.793 8.021,-2.603 16.685,-15.21 29.358,-3.793 1.642,-3.2 0.925,-9.393 -2.332,-11.838 5.729,-1.585 9.811,-4.398 12.69,-7.697 0.027,0.437 0.049,0.87 0.075,1.305 0.105,2.066 0.236,4.812 0.31,6.78"
           style="fill:#a7a5a6;fill-opacity:1;fill-rule:nonzero;stroke:none"
           id="path3086" /><path
           d="m 92.126,251.017 c -0.264,-0.008 -0.536,-0.008 -0.796,-0.019 -0.133,-0.007 -0.265,-0.015 -0.397,-0.021 -4.341,-0.236 -8.088,-1.068 -11.439,-2.309 -0.271,-0.102 -0.541,-0.207 -0.809,-0.314 -0.171,-0.068 -0.341,-0.138 -0.511,-0.208 -2.632,-1.102 -5.16,-2.508 -7.701,-4.215 l -1.435,-0.993 c -0.479,-0.341 -0.961,-0.696 -1.444,-1.059 -0.049,-0.036 -0.097,-0.072 -0.145,-0.108 -0.393,-0.298 -0.789,-0.605 -1.186,-0.916 -0.148,-0.116 -0.298,-0.231 -0.446,-0.348 -0.147,-0.117 -0.292,-0.234 -0.439,-0.35 -4.235,-3.388 -8.28,-7.033 -12.99,-10.112 -2.181,-1.426 -4.502,-2.732 -7.058,-3.829 -0.19,-0.082 -0.39,-0.156 -0.583,-0.236 -0.389,-0.16 -0.774,-0.322 -1.174,-0.472 -0.272,-0.103 -0.558,-0.195 -0.837,-0.292 -0.333,-0.117 -0.661,-0.24 -1.002,-0.35 -0.011,-1.755 -0.007,-3.509 0.011,-5.264 0.019,-1.752 0.054,-3.523 0.106,-5.309 0.015,-0.531 0.038,-1.068 0.057,-1.602 0.265,-6.654 1.017,-15.524 1.729,-22.044 8.806,13.418 18.839,27.52 27.851,34.436 -0.763,5.849 -3.987,10.077 -1.929,15.766 1.451,-5.577 7.421,-7.939 11.684,-12.267 1.419,0.013 2.813,-0.04 4.181,-0.156 -0.602,6.252 -4.169,10.237 -2.015,16.195 1.282,-4.926 5.118,-6.831 8.717,-10.023 l 0,16.419 z"
           style="fill:#b02434;fill-opacity:1;fill-rule:evenodd;stroke:none"
           id="path3088" /><path
           d="m 81.48,175.992 c -13.995,-2.169 -20.212,-8.179 -24.651,-13.541 -2.12,-2.559 -3.835,-4.968 -5.797,-6.743 5.111,-15.14 13.02,-30.902 23.633,-43.479 8.376,15.067 14.681,32.576 6.815,63.763"
           style="fill:#b02434;fill-opacity:1;fill-rule:evenodd;stroke:none"
           id="path3090" /><path
           d="m 66.361,200.856 c -1.057,-1.407 -2.214,-1.92 -3.858,-1.897 -0.218,0.002 -0.467,0.009 -0.726,0.014 -0.635,0.015 -1.303,0.03 -2.813,0.015 -1.093,-0.097 -2.928,-2.126 -4.925,-3.889 2.745,3.437 2.893,4.962 4.876,8.467 0.441,0.782 1.041,1.332 2.439,1.347 1.433,0.014 2.521,-0.019 3.382,-0.045 0.376,-0.012 0.709,-0.022 1.014,-0.026 0.834,2.257 4.387,5.876 8.613,7.113 -6.283,-5.343 -6.481,-9.076 -8.002,-11.099 m 15.564,-96.304 c 1.869,-1.748 3.808,-3.418 5.807,-5.016 7.324,17.774 14.992,44.685 7.399,72.099 11.061,-25.238 7.602,-50.712 4.627,-70.996 1.55,1.278 3.048,2.596 4.494,3.95 16.079,15.042 25.978,34.512 31.87,55.014 -0.189,8.948 -11.303,42.328 -32.012,54.07 19.04,-5.478 33.291,-38.546 34.171,-48.576 4.104,5.209 1.652,17.409 -1.277,24.475 3.967,1.075 8.442,0.183 11.103,-1.579 -0.333,7.466 -5.63,21.363 -22.146,23.071 1.736,1.02 6.653,4.547 6.464,8.416 -12.341,-8.34 -20.896,3.354 -28.322,5.542 -4.421,1.302 -6.261,-0.602 -7.784,-2.452 -0.703,8.945 -7.418,9.542 -11.31,15.277 1.628,-4.772 2.587,-6.911 3.138,-12.625 -2.517,0.671 -8.757,1.215 -11.958,-0.391 -15.349,-8.643 -33.006,-38.261 -43.346,-56.21 -0.362,-0.628 -0.5,-1.268 -0.43,-1.99 0.126,-1.291 0.211,-2.63 0.798,-3.9 1.285,0.549 2.878,1.11 3.667,2.637 -1.578,1.111 -2.149,4.38 0.185,4.561 2.226,0.173 3.549,-2.828 3.221,-4.781 -0.449,-2.663 -5.216,-3.393 -6.769,-3.041 1.718,-2.755 2.98,-4.224 5.055,-5.217 2.318,4.767 4.351,8.291 8.805,11.756 3.887,1.857 4.988,-1.728 2.332,-3.434 -2.588,-2.183 -6.513,-2.872 -8.691,-9.184 5.673,-1.444 7.751,2.768 12.516,8.119 14.566,16.353 29.164,18.082 37.099,16.94 0.882,6.947 3.189,14.378 10.651,20.77 -6.944,-13.28 -7.618,-19.655 -7.288,-26.295 -2.677,0.808 -6.719,1.106 -11.205,0.6 8.684,-35.247 3.119,-52.81 -4.258,-68.241 1.107,-1.158 2.236,-2.285 3.394,-3.369"
           style="fill:#ffffff;fill-opacity:1;fill-rule:nonzero;stroke:none"
           id="path3092" /><path
           d="m 69.722,236.852 c 0.573,-5.555 2.565,-7.772 2.627,-11.178 1.67,1.272 2.807,1.966 5.162,2.72 -2.959,2.934 -6.769,4.541 -7.789,8.458"
           style="fill:#ffffff;fill-opacity:1;fill-rule:nonzero;stroke:none"
           id="path3094" /><path
           d="m 65.75,204.842 c -0.305,0.004 -0.638,0.014 -1.014,0.026 -0.861,0.026 -1.949,0.059 -3.382,0.045 -1.398,-0.015 -1.998,-0.565 -2.439,-1.347 -1.983,-3.505 -2.131,-5.03 -4.876,-8.467 1.997,1.763 3.832,3.792 4.925,3.889 1.51,0.015 2.178,0 2.813,-0.015 0.259,-0.005 0.508,-0.012 0.726,-0.014 1.644,-0.023 2.801,0.49 3.858,1.897 1.521,2.023 1.719,5.756 8.002,11.099 -4.226,-1.237 -7.779,-4.856 -8.613,-7.113 m 71.254,-15.27 c 2.929,-7.066 5.381,-19.266 1.277,-24.475 -0.88,10.03 -15.131,43.098 -34.171,48.576 20.709,-11.742 31.823,-45.122 32.012,-54.07 -5.892,-20.502 -15.791,-39.972 -31.87,-55.014 -1.446,-1.354 -2.944,-2.672 -4.494,-3.95 2.975,20.284 6.434,45.758 -4.627,70.996 7.593,-27.414 -0.075,-54.325 -7.399,-72.099 -1.999,1.598 -3.938,3.268 -5.807,5.016 -1.158,1.084 -2.287,2.211 -3.394,3.369 7.377,15.431 12.942,32.994 4.258,68.241 4.486,0.506 8.528,0.208 11.205,-0.6 -0.33,6.64 0.344,13.015 7.288,26.295 -7.462,-6.392 -9.769,-13.823 -10.651,-20.77 -7.935,1.142 -22.533,-0.587 -37.099,-16.94 -4.765,-5.351 -6.843,-9.563 -12.516,-8.119 2.178,6.312 6.103,7.001 8.691,9.184 2.656,1.706 1.555,5.291 -2.332,3.434 -4.454,-3.465 -6.487,-6.989 -8.805,-11.756 -2.075,0.993 -3.337,2.462 -5.055,5.217 1.553,-0.352 6.32,0.378 6.769,3.041 0.328,1.953 -0.995,4.954 -3.221,4.781 -2.334,-0.181 -1.763,-3.45 -0.185,-4.561 -0.789,-1.527 -2.382,-2.088 -3.667,-2.637 -0.587,1.27 -0.672,2.609 -0.798,3.9 -0.07,0.722 0.068,1.362 0.43,1.99 10.34,17.949 27.997,47.567 43.346,56.21 3.201,1.606 9.441,1.062 11.958,0.391 -0.551,5.714 -1.51,7.853 -3.138,12.625 3.892,-5.735 10.607,-6.332 11.31,-15.277 1.523,1.85 3.363,3.754 7.784,2.452 7.426,-2.188 15.981,-13.882 28.322,-5.542 0.189,-3.869 -4.728,-7.396 -6.464,-8.416 16.516,-1.708 21.813,-15.605 22.146,-23.071 -2.661,1.762 -7.136,2.654 -11.103,1.579 M 74.665,112.229 c -10.613,12.577 -18.522,28.339 -23.633,43.479 1.962,1.775 3.677,4.184 5.797,6.743 4.439,5.362 10.656,11.372 24.651,13.541 7.866,-31.187 1.561,-48.696 -6.815,-63.763 m 2.846,116.165 c -2.355,-0.754 -3.492,-1.448 -5.162,-2.72 -0.062,3.406 -2.054,5.623 -2.627,11.178 1.02,-3.917 4.83,-5.524 7.789,-8.458 m -34.775,-3.178 c 0.279,0.097 0.565,0.189 0.837,0.292 0.003,10e-4 0.004,0.002 0.007,0.003 0.324,0.121 0.636,0.255 0.954,0.384 0.07,0.028 0.142,0.056 0.213,0.085 0.193,0.08 0.393,0.154 0.583,0.236 0.005,0.002 0.01,0.005 0.015,0.007 0.558,0.24 1.102,0.493 1.639,0.753 0.073,0.035 0.15,0.066 0.223,0.102 -0.072,-0.035 -0.148,-0.066 -0.22,-0.101 0.223,0.108 0.443,0.22 0.663,0.331 -0.149,-0.076 -0.292,-0.156 -0.443,-0.23 0.151,0.074 0.295,0.155 0.445,0.231 0.297,0.15 0.592,0.302 0.883,0.458 0.154,0.081 0.314,0.158 0.466,0.241 -0.151,-0.083 -0.311,-0.159 -0.464,-0.24 0.28,0.149 0.56,0.299 0.836,0.454 0.146,0.082 0.289,0.166 0.433,0.249 0.882,0.507 1.747,1.028 2.582,1.574 -0.835,-0.545 -1.698,-1.066 -2.579,-1.572 5.591,3.222 10.229,7.425 15.569,11.684 0.147,0.116 0.292,0.233 0.439,0.35 0.056,0.043 0.109,0.087 0.163,0.13 0.095,0.075 0.188,0.144 0.283,0.218 0.397,0.311 0.793,0.618 1.186,0.916 l 0.145,0.108 c 0.483,0.363 0.965,0.718 1.444,1.059 l 1.435,0.993 c 2.541,1.707 5.069,3.113 7.701,4.215 0.17,0.071 0.341,0.14 0.511,0.208 0.268,0.107 0.538,0.212 0.809,0.314 3.506,1.312 7.232,2.087 11.439,2.309 0.132,0.006 0.264,0.014 0.397,0.021 0.264,0.011 0.529,0.022 0.796,0.029 l 0,-16.429 c -3.599,3.192 -7.435,5.097 -8.717,10.023 -2.154,-5.958 1.413,-9.943 2.015,-16.195 -1.368,0.116 -2.762,0.169 -4.181,0.156 -4.263,4.328 -10.233,6.69 -11.684,12.267 -2.058,-5.689 1.166,-9.917 1.929,-15.766 -9.012,-6.916 -19.045,-21.018 -27.851,-34.436 -0.712,6.52 -1.464,15.39 -1.729,22.044 -0.022,0.548 -0.042,1.086 -0.057,1.602 -0.052,1.769 -0.086,3.538 -0.106,5.308 0.019,-1.753 0.054,-3.523 0.106,-5.308 -0.052,1.786 -0.087,3.557 -0.106,5.309 -0.018,1.755 -0.022,3.509 -0.011,5.264 0.341,0.11 0.669,0.233 1.002,0.35 m -1.002,-0.349 c 0.12,0.039 0.235,0.083 0.354,0.123 -0.119,-0.04 -0.234,-0.085 -0.354,-0.124 l 0,10e-4 z m 52.849,26.16 c 0.386,-0.008 0.773,-0.015 1.151,-0.032 0.124,-0.006 0.243,-0.016 0.365,-0.023 0.63,-0.034 1.252,-0.08 1.861,-0.139 0.077,-0.007 0.152,-0.017 0.229,-0.025 0.654,-0.067 1.295,-0.148 1.926,-0.244 0.032,-0.004 0.064,-0.01 0.097,-0.015 0.657,-0.101 1.303,-0.218 1.939,-0.35 0.019,-0.004 0.038,-0.009 0.059,-0.012 0.612,-0.129 1.218,-0.272 1.814,-0.429 0.054,-0.014 0.108,-0.028 0.162,-0.042 0.51,-0.137 1.016,-0.285 1.517,-0.444 0.144,-0.045 0.288,-0.088 0.431,-0.135 0.349,-0.116 0.697,-0.24 1.042,-0.365 0.29,-0.106 0.582,-0.209 0.869,-0.322 0.141,-0.054 0.279,-0.114 0.419,-0.171 3.724,-1.516 7.23,-3.642 10.849,-6.356 0.044,-0.032 0.087,-0.065 0.131,-0.098 0.426,-0.321 0.855,-0.653 1.285,-0.99 0.085,-0.067 0.17,-0.13 0.256,-0.198 0.056,-0.043 0.11,-0.087 0.164,-0.131 0.146,-0.114 0.288,-0.23 0.432,-0.345 5.814,-4.634 10.793,-9.205 17.076,-12.516 0.009,-0.005 0.018,-0.011 0.028,-0.016 0.17,-0.09 0.346,-0.177 0.52,-0.266 0.295,-0.149 0.589,-0.3 0.89,-0.444 0.49,-0.234 0.986,-0.462 1.494,-0.682 0.017,-0.007 0.033,-0.015 0.05,-0.022 0.166,-0.071 0.34,-0.135 0.507,-0.205 0.049,-0.021 0.1,-0.04 0.15,-0.06 0.223,-0.092 0.447,-0.18 0.671,-0.27 0.142,-0.057 0.282,-0.117 0.428,-0.172 0.255,-0.096 0.524,-0.183 0.786,-0.275 0.349,-0.123 0.693,-0.252 1.051,-0.367 0.012,-1.76 0.008,-3.52 -0.011,-5.281 -0.003,-0.276 -0.012,-0.552 -0.016,-0.828 -0.02,-1.488 -0.046,-2.977 -0.09,-4.464 -0.002,-0.052 -0.003,-0.112 -0.005,-0.168 -0.009,-0.317 -0.022,-0.676 -0.037,-1.067 -0.074,-1.968 -0.205,-4.714 -0.31,-6.78 -0.026,-0.483 -0.048,-0.924 -0.069,-1.313 -0.003,0.003 -0.005,0.005 -0.006,0.008 -2.879,3.299 -6.961,6.112 -12.69,7.697 3.257,2.445 3.974,8.638 2.332,11.838 -12.673,-11.417 -21.337,1.19 -29.358,3.793 -2.91,0.944 -5.779,0.371 -7.611,-0.793 -0.783,1.837 -1.738,3.315 -2.778,4.573 l 0,18.946 z m 50.649,-26.16 0,-10e-4 c -0.192,0.062 -0.375,0.134 -0.565,0.198 0.19,-0.064 0.372,-0.135 0.565,-0.197 m 3.236,-25.789 0.22,3.209 c 0.289,3.984 0.487,7.953 0.6,11.884 0.104,3.574 0.143,7.148 0.118,10.723 l -0.018,3.02 -2.875,0.926 c -9.327,3.003 -15.481,9.184 -22.941,15.074 -9.348,7.38 -17.928,11.31 -30.088,11.31 l -0.002,0 c -12.159,0 -20.74,-3.93 -30.088,-11.31 -7.459,-5.89 -13.613,-12.071 -22.939,-15.074 l -2.875,-0.926 -0.02,-3.02 c -0.023,-3.575 0.014,-7.149 0.118,-10.723 0.243,-8.349 1.237,-20.298 2.355,-29.07 -3.56,-5.527 -6.846,-10.738 -9.685,-15.033 -1.082,-1.637 -1.386,-3.463 -0.892,-5.362 2.053,-7.9 6.283,-10.493 10.385,-11.443 3.106,-0.72 5.476,-0.597 7.448,0.112 6.435,-18.719 17.129,-38.161 31.785,-51.87 3.767,-3.524 7.794,-6.759 12.048,-9.678 l 2.361,-1.621 2.362,1.621 c 4.253,2.919 8.281,6.154 12.048,9.678 17.003,15.906 27.541,36.557 33.745,58.678 0.102,0.362 0.326,1.943 0.425,2.306 l 0.958,6.834 c -0.003,-0.003 -0.008,-0.007 -0.011,-0.01 0.704,5.389 0.116,12.539 -2.46,17.916 2.462,0.342 8.604,-2.584 9.72,-4.443 0.962,2.53 1.27,9.546 -1.802,16.292 m -11.628,29.566 c -0.601,0.348 -1.192,0.706 -1.769,1.075 0.577,-0.369 1.168,-0.727 1.769,-1.075 m 0.408,-0.225 c -0.135,0.076 -0.274,0.148 -0.408,0.225 0.134,-0.077 0.273,-0.149 0.408,-0.225 m 1.431,-0.787 c -0.008,0.004 -0.015,0.009 -0.022,0.013 -0.478,0.25 -0.944,0.512 -1.409,0.774 0.472,-0.266 0.944,-0.532 1.431,-0.787"
           style="fill:#231f20;fill-opacity:1;fill-rule:nonzero;stroke:none"
           id="path3096" /><path
           d="m 29.089,148.696 c 0.753,0.095 1.492,-0.012 2.171,-0.446 0.318,0.317 0.654,0.591 1.002,0.828 l -1.57,3.703 c -3.401,7.863 -6.904,15.998 -7.572,29.283 -0.384,-0.528 -0.795,-1.088 -1.091,-1.479 -0.398,-0.525 -1.312,0.351 -1.955,1.099 0.734,-13.72 4.471,-22.426 7.8,-30.122 l 1.215,-2.866 z m -8.068,69.609 c 0.903,10.308 2.315,22.361 5.31,35.779 0.034,0.151 -0.058,0.302 -0.207,0.341 -0.15,0.04 -0.305,-0.046 -0.35,-0.194 -3.674,-11.961 -5.98,-22.576 -7.047,-32.451 -0.105,-0.966 -0.197,-1.865 -0.281,-2.728 0.635,-0.175 1.214,-0.484 1.692,-0.985 0.296,0.103 0.59,0.177 0.883,0.238 m 32.273,-116.626 1.067,2.657 -6.164,11.273 -0.989,-4.233 -2.54,1.693 7.067,-11.385 1.559,-0.005 z m -13.361,14.505 c -0.691,0.233 -1.51,0.474 -2.201,0.708 1.694,-1.362 3.826,-2.17 6.261,-2.553 -1.326,1.084 -2.651,2.166 -3.976,3.249 -0.071,-0.465 -0.014,-0.939 -0.084,-1.404 m 7.055,4.45 c -1.616,1.047 -3.232,2.275 -5.209,3.003 -0.248,-0.22 -0.615,-0.306 -0.862,-0.525 -0.171,-1.443 -0.604,-2.999 -0.773,-4.441 0.629,-1.459 4.281,-4.027 6.817,-5.087 -0.076,1.661 0.483,5.004 0.027,7.05 m -7.843,-3.698 c 0.377,2.071 0.754,4.141 1.132,6.213 -1.771,-0.685 -3.653,0.752 -5.584,3.155 -0.268,-0.2 -0.536,-0.397 -0.803,-0.595 0.962,-2.534 1.704,-4.823 2.346,-6.998 0.97,-0.591 1.939,-1.184 2.909,-1.775 m -9.283,7.86 c -0.942,-0.473 5.872,-8.348 6.533,-7.76 -1.285,2.797 -2.624,5.565 -3.009,8.832 -1.115,-0.788 -2.29,-1.145 -3.524,-1.072 m 13.565,13.87 c 0,0 3.706,-4.581 3.939,-4.979 1.04,1.317 -0.661,4.025 -3.939,4.979 m 3.896,-10.105 c -1.098,-0.126 -2.254,0.178 -3.471,0.913 -0.32,-2.18 -1.04,-3.912 -2.163,-5.192 2.399,-1.015 4.707,-2.115 6.381,-3.777 0.342,2.566 0.093,5.25 -0.747,8.056 m -5.704,4.379 c 5.901,-6.869 8.892,-2.838 1.861,4.44 0.185,-2.057 -0.222,-3.347 -1.861,-4.44 m 1.27,-2.383 c -0.933,0.503 -1.548,1.288 -2.119,2.114 -0.824,0.155 -1.649,0.311 -2.472,0.467 -0.816,-2.26 -1.893,-4.225 -3.35,-5.76 3.872,-5.766 6.519,-4.706 7.941,3.179 m -0.281,8.349 c -1.565,0.264 -3.02,0.949 -4.366,2.055 0.288,-2.025 0.223,-4.222 -0.17,-6.206 3.371,-1.709 5.374,-1.059 4.536,4.151 m -5.032,-4.955 c -2.388,-1.536 -4.526,-0.852 -6.553,0.839 -1.228,-1.091 -2.161,-1.255 -3.695,-1.83 -0.843,-13.824 9.704,-4.973 10.248,0.991 m -10.633,-0.968 c -0.342,-0.023 -0.685,-0.045 -1.028,-0.067 -1.57,-2.249 -0.864,-4.938 0.884,-7.228 0.203,-2.29 -0.125,-4.209 0.195,-3.925 1.071,0.273 2.704,1.973 2.492,2.095 -2.603,2.272 -3.813,5.977 -2.543,9.125 m 4.771,2.663 c 5.823,-4.003 5.955,-0.056 5.799,6 -1.265,-0.801 -2.875,-2.029 -4.139,-2.829 -0.736,-1.259 -0.923,-1.912 -1.66,-3.171 m 0.593,3.554 c -1.336,0.479 -2.623,1.055 -3.848,1.063 -1.928,-1.913 -3.182,-4.361 -3.086,-6.739 2.419,0.61 4.943,-0.063 6.934,5.676 m 6.568,4.548 c -0.329,-0.446 -0.863,-1.23 -1.069,-1.478 3.205,-2.072 3.967,-2.511 5.446,-2.457 1.548,0.055 3.006,-2.345 4.932,-3.098 -0.638,1.49 -1.444,2.676 -2.314,3.619 -1.158,2.337 -2.395,4.605 -5.905,4.853 -0.125,-0.111 -1.1,-1.439 -1.1,-1.439 l 0.01,0 z M 33.542,139.7 c 2.324,1.754 4.457,3.539 5.253,5.556 -4.52,1.87 -8.068,1.376 -10.644,-1.484 0.388,-2.427 2.498,-3.546 5.391,-4.072 m -5.323,1.253 c -0.14,1.259 -0.617,1.937 -1.14,2.53 -4.228,-3.749 -3.913,-7.486 -2.657,-11.22 0.598,3.164 0.528,6.597 3.797,8.69 m 2.856,5.622 c 2.934,0.242 6.971,0.378 8.463,-0.66 -0.827,1.005 -0.873,2.22 -0.136,3.644 -2.221,0.108 -6.167,0.296 -8.327,-2.984 m -6.843,-1.633 c 0.712,-0.474 0.997,-1.694 1.166,-2.651 1.144,1.678 3.402,3.794 5.546,5.069 -1.684,1.307 -4.143,-0.344 -6.712,-2.418 m 36.81,-39.861 c -0.776,0.433 -1.741,1.046 -1.904,1.83 -2.72,-1.726 -5.031,-3.474 -4.485,-5.383 1.874,1.573 4.519,3.004 6.389,3.553 m 2.111,-13.689 c -1.873,0.22 -3.815,0.802 -5.485,1.653 0.492,-1.543 0.577,-3.062 0.255,-4.56 4.258,-2.276 5.533,-0.648 5.23,2.907 m -4.377,11.625 c -3.409,-1.504 -5.093,-4.579 -5.055,-9.223 2.043,0.135 4.357,1.55 6.711,3.147 0.562,2.777 0.329,5.017 -1.656,6.076 m -3.482,-1.838 c -3.629,-1.003 -4.859,-4.636 -5.548,-6.682 1.504,0.254 2.549,-0.143 3.136,-1.184 -0.381,1.654 1.164,5.276 2.412,7.866 m 13.223,-0.565 c -1.046,-1.224 -1.518,-2.022 -2.906,-2.818 0.763,-2.331 0.605,-4.471 -1.581,-6.188 5.404,-1.244 16.864,5.746 4.487,9.006 m -7.301,1.52 c 2.984,2.355 5.959,1.293 8.935,0.912 -2.82,2.228 -5.974,3.601 -10.744,0.859 0.334,-0.648 0.759,-1.277 1.809,-1.771 m 7.497,0.418 c -2.045,0.779 -4.626,0.354 -6.98,-0.837 -0.424,-1.113 -0.376,-2.449 -0.429,-3.799 5.719,0.133 6.023,2.618 7.409,4.636 m -2.986,-17.94 c 0.212,-1.318 -0.024,-3.069 -0.522,-4.027 2.155,-1.579 4.507,-1.974 6.87,-2.41 -0.861,2.002 -1.007,4.414 -1.048,6.887 -1.514,-0.646 -3.282,-0.795 -5.3,-0.45 m 6.597,0.809 c -0.28,-0.16 -0.484,-0.468 -0.764,-0.63 -0.062,-2.005 0.44,-3.826 0.785,-5.597 1.626,-1.01 4.745,-1.477 6.17,-2.029 -0.031,2.607 -0.986,6.668 -2.037,7.664 -1.321,0.266 -2.833,0.326 -4.154,0.592 m 6.561,1.078 c -0.041,-0.696 -0.119,-1.509 -0.159,-2.204 -0.432,0.073 -0.826,0.263 -1.258,0.335 0.479,-1.518 0.957,-3.035 1.436,-4.553 0.525,2.319 0.571,4.489 -0.019,6.422 m -21.982,1.668 c 0.569,1.324 0.455,2.145 -0.223,5.654 -0.29,-0.114 -1.163,-0.371 -1.67,-0.539 l 0.003,0.01 c 0,0 -1.505,-0.499 -1.644,-0.579 -1.024,-3.257 0.29,-6.542 1.924,-8.275 0.518,-1.064 1.89,-1.988 2.245,-4.466 1.447,2.153 -1.23,6.806 -0.635,8.195 m 6.58,-10.926 c -0.046,0.091 -0.09,0.166 -0.136,0.253 0.017,-0.126 0.055,-0.218 0.136,-0.253 m 7.221,14.836 c -1.858,-0.874 -3.955,-1.279 -6.218,-1.361 -0.155,-0.793 -0.309,-1.586 -0.465,-2.378 0.521,-0.758 0.989,-1.545 1.1,-2.538 7.392,-1.006 9.253,1.086 5.583,6.277 M 58.949,87.251 c 3.877,-8.496 8.456,-6.957 4.537,0.396 -1.534,-1.169 -2.805,-1.163 -4.537,-0.396 m 3.86,-6.081 c -2.574,1.459 -4.796,5.345 -4.965,6.503 -0.19,-2.473 0.323,-5.235 2.799,-6.832 0.792,-0.512 1.633,-1.317 2.704,-3.347 -0.084,0.648 0.469,2.339 -0.538,3.676 m 1.811,16.248 c -1.361,-0.302 -1.996,-0.281 -3.357,-0.582 -1.146,-0.914 -2.789,-2.017 -3.935,-2.931 5.238,-1.904 8.735,-2.934 7.292,3.513 m 7.897,-11.405 c 1.943,-0.262 3.886,-0.522 5.83,-0.783 -0.175,1.052 -0.35,2.103 -0.525,3.155 -1.674,1.216 -3.412,2.555 -5.287,4.167 -0.268,-0.186 -0.535,-0.371 -0.802,-0.557 1.416,-2.451 2.008,-4.575 0.784,-5.982 m 2.238,9.925 c -0.371,-1.14 -1.098,-2.101 -2.181,-2.884 2.719,-1.299 4.665,-3.321 6.656,-5.301 0.746,0.429 -3.729,8.902 -4.475,8.185 m -6.123,5.031 c 3.2,0.236 6.01,-1.941 7.076,-4.964 0.032,-0.226 2.094,0.76 2.712,1.652 0.36,0.207 -1.433,0.469 -3.362,1.319 -1.384,2.253 -3.485,3.677 -6.004,2.907 l -0.422,-0.914 z M 16.43,186.367 c -0.522,0.442 -1.153,0.933 -1.673,1.375 1.005,-1.769 2.583,-3.207 4.57,-4.379 -0.781,1.4 -1.561,2.799 -2.342,4.199 -0.222,-0.381 -0.335,-0.813 -0.555,-1.195 m 5.222,-4.683 c 0.507,1.471 2.144,4.19 2.452,6.129 -1.047,1.468 -2.03,3.092 -3.5,4.407 -0.292,-0.106 -0.641,-0.053 -0.933,-0.16 -0.645,-1.197 -1.558,-2.403 -2.203,-3.6 0.047,-1.486 2.342,-4.98 4.184,-6.776 m -2.524,10.629 c -1.778,0.014 -2.921,1.914 -3.775,4.668 -0.302,-0.079 -0.603,-0.159 -0.904,-0.239 -0.035,-2.537 -0.177,-4.786 -0.367,-6.901 0.639,-0.849 1.279,-1.698 1.919,-2.548 1.042,1.673 2.084,3.347 3.127,5.02 m -8.5,5.021 c -0.983,-0.087 2.237,-9.289 3.014,-9.006 -0.155,2.878 -0.368,5.749 0.423,8.726 -1.243,-0.302 -2.388,-0.209 -3.437,0.28 m 20.374,-3.75 c 0.033,-0.094 0.059,-0.179 0.095,-0.277 0.025,0.088 -0.015,0.178 -0.095,0.277 m 0,0 c -0.773,2.203 -0.815,3.398 -0.679,4.355 0.425,2.992 -1.223,5.262 -3.109,6.797 0.721,-0.918 2.09,-5.268 1.505,-8.241 0.318,-1.684 1.874,-2.406 2.283,-2.911 m -3.379,0.67 c -0.999,0.267 -2.399,1.275 -3.206,2.334 -1.028,-1.788 -2.252,-3.048 -3.669,-3.775 1.737,-1.711 3.368,-3.462 4.253,-5.486 1.182,2.116 2.386,4.194 2.622,6.927 m -0.805,9.345 c -0.548,-1.855 -1.346,-2.838 -3.15,-3.224 2.771,-8.013 6.764,-5.534 3.15,3.224 m -10.873,-5.77 c 1.385,-6.352 4.054,-6.341 8.008,0.033 -0.64,0.76 -0.904,1.655 -1.117,2.571 -0.664,0.418 -1.328,0.838 -1.991,1.258 -1.488,-1.687 -3.103,-3.025 -4.9,-3.862 m 10.639,7.399 c -1.271,0.769 -2.302,1.867 -3.092,3.293 -0.448,-1.863 -1.262,-3.753 -2.287,-5.345 2.346,-2.648 4.314,-2.773 5.379,2.052 m -6.087,-2.581 c -2.608,-0.515 -4.234,0.817 -5.416,2.988 -1.445,-0.527 -2.313,-0.348 -3.848,-0.321 -5.495,-11.744 6.736,-7.67 9.264,-2.667 m -9.59,2.82 c -0.306,0.098 -0.612,0.197 -0.919,0.296 -2.141,-1.417 -2.452,-4.001 -1.719,-6.597 -0.612,-2.064 -1.559,-3.622 -1.184,-3.484 1.028,-0.132 3.035,0.787 2.893,0.964 -1.484,2.875 -1.261,6.518 0.929,8.821 m 12.185,3.901 c -1.377,-0.261 -3.201,-0.776 -4.578,-1.037 -1.075,-0.844 -1.461,-1.347 -2.536,-2.189 3.689,-5.492 5.164,-2.1 7.114,3.226 M 9.726,206.479 c 2.316,-0.303 4.282,-1.758 7.991,2.554 -0.998,0.876 -1.92,1.821 -2.983,2.25 -2.338,-1.003 -4.272,-2.701 -5.008,-4.804 m 15.267,4.253 0.008,-0.003 c -0.438,-0.276 -1.174,-0.774 -1.439,-0.918 2.077,-2.909 2.59,-3.553 3.896,-4.016 1.366,-0.484 2.995,-5.707 5.447,-6.056 -1.544,1.957 -1.337,3.64 -1.769,4.763 -0.204,2.435 -1.719,5.68 -4.69,7.103 -0.146,-0.053 -1.453,-0.873 -1.453,-0.873 m 0.459,1.337 c -3.291,3.185 -6.551,3.977 -9.778,2.375 -0.499,-2.247 0.953,-3.948 3.29,-5.402 2.628,0.726 5.099,1.546 6.488,3.027 m -10.689,-0.102 c 0.311,1.143 0.13,1.897 -0.121,2.595 -4.972,-1.808 -5.986,-5.169 -6.178,-8.854 1.61,2.549 2.732,5.562 6.299,6.259 m 4.422,3.909 c 2.638,-0.799 6.2,-2.071 7.141,-3.489 -0.374,1.16 0.005,2.234 1.136,3.219 -1.896,0.86 -5.267,2.382 -8.277,0.27 m -6.417,-1.773 c 1.574,1.067 4.268,2.13 6.574,2.503 -1.017,1.717 -3.725,1.126 -6.676,0.206 0.456,-0.658 0.284,-1.818 0.102,-2.709"
           style="fill:#231f20;fill-opacity:1;fill-rule:evenodd;stroke:none"
           id="path3098" /></g></g></g></svg>